<svg width="128" height="28" viewBox="0 0 128 28" fill="none" xmlns="http://www.w3.org/2000/svg">
<path d="M44.84 22L41.4 10.8H41.32C41.3333 11.0667 41.3533 11.4667 41.38 12C41.4067 12.5333 41.4333 13.1067 41.46 13.72C41.4867 14.32 41.5 14.8667 41.5 15.36V22H38.8V7.72H42.92L46.3 18.64H46.36L49.94 7.72H54.06V22H51.24V15.24C51.24 14.7867 51.2467 14.2667 51.26 13.68C51.2867 13.0933 51.3067 12.54 51.32 12.02C51.3467 11.4867 51.3667 11.0867 51.38 10.82H51.3L47.62 22H44.84ZM63.7072 22L60.2672 10.8H60.1872C60.2005 11.0667 60.2205 11.4667 60.2472 12C60.2739 12.5333 60.3005 13.1067 60.3272 13.72C60.3539 14.32 60.3672 14.8667 60.3672 15.36V22H57.6672V7.72H61.7872L65.1672 18.64H65.2272L68.8072 7.72H72.9272V22H70.1072V15.24C70.1072 14.7867 70.1139 14.2667 70.1272 13.68C70.1539 13.0933 70.1739 12.54 70.1872 12.02C70.2139 11.4867 70.2339 11.0867 70.2472 10.82H70.1672L66.4872 22H63.7072ZM89.4944 14.84C89.4944 15.9467 89.3544 16.9533 89.0744 17.86C88.8077 18.7533 88.3944 19.5267 87.8344 20.18C87.2877 20.8333 86.581 21.3333 85.7144 21.68C84.861 22.0267 83.8544 22.2 82.6944 22.2C81.5344 22.2 80.521 22.0267 79.6544 21.68C78.801 21.32 78.0944 20.82 77.5344 20.18C76.9877 19.5267 76.5744 18.7467 76.2944 17.84C76.0277 16.9333 75.8944 15.9267 75.8944 14.82C75.8944 13.34 76.1344 12.0533 76.6144 10.96C77.1077 9.86667 77.8544 9.02 78.8544 8.42C79.8677 7.80667 81.1544 7.5 82.7144 7.5C84.261 7.5 85.5344 7.80667 86.5344 8.42C87.5344 9.02 88.2744 9.87333 88.7544 10.98C89.2477 12.0733 89.4944 13.36 89.4944 14.84ZM79.0744 14.84C79.0744 15.84 79.201 16.7 79.4544 17.42C79.7077 18.14 80.101 18.6933 80.6344 19.08C81.1677 19.4667 81.8544 19.66 82.6944 19.66C83.561 19.66 84.2544 19.4667 84.7744 19.08C85.3077 18.6933 85.6944 18.14 85.9344 17.42C86.1877 16.7 86.3144 15.84 86.3144 14.84C86.3144 13.3333 86.0344 12.1533 85.4744 11.3C84.9144 10.4467 83.9944 10.02 82.7144 10.02C81.861 10.02 81.1677 10.2133 80.6344 10.6C80.101 10.9867 79.7077 11.54 79.4544 12.26C79.201 12.98 79.0744 13.84 79.0744 14.84ZM92.4523 22V7.72H95.4723V19.5H101.272V22H92.4523ZM106.501 11.08V22H103.521V11.08H106.501ZM105.021 6.8C105.461 6.8 105.841 6.90667 106.161 7.12C106.481 7.32 106.641 7.7 106.641 8.26C106.641 8.80667 106.481 9.18667 106.161 9.4C105.841 9.61333 105.461 9.72 105.021 9.72C104.568 9.72 104.181 9.61333 103.861 9.4C103.554 9.18667 103.401 8.80667 103.401 8.26C103.401 7.7 103.554 7.32 103.861 7.12C104.181 6.90667 104.568 6.8 105.021 6.8ZM117.235 18.76C117.235 19.4933 117.061 20.12 116.715 20.64C116.368 21.1467 115.848 21.5333 115.155 21.8C114.461 22.0667 113.601 22.2 112.575 22.2C111.815 22.2 111.161 22.1467 110.615 22.04C110.068 21.9467 109.521 21.7867 108.975 21.56V19.1C109.561 19.3667 110.195 19.5867 110.875 19.76C111.555 19.9333 112.155 20.02 112.675 20.02C113.261 20.02 113.675 19.9333 113.915 19.76C114.168 19.5867 114.295 19.36 114.295 19.08C114.295 18.8933 114.241 18.7267 114.135 18.58C114.041 18.4333 113.828 18.2667 113.495 18.08C113.161 17.8933 112.641 17.6533 111.935 17.36C111.255 17.0667 110.695 16.78 110.255 16.5C109.815 16.2067 109.488 15.86 109.275 15.46C109.061 15.0467 108.955 14.5333 108.955 13.92C108.955 12.9067 109.348 12.1467 110.135 11.64C110.921 11.1333 111.968 10.88 113.275 10.88C113.955 10.88 114.601 10.9467 115.215 11.08C115.828 11.2133 116.461 11.4333 117.115 11.74L116.215 13.88C115.855 13.72 115.508 13.58 115.175 13.46C114.841 13.34 114.515 13.2467 114.195 13.18C113.888 13.1133 113.568 13.08 113.235 13.08C112.795 13.08 112.461 13.14 112.235 13.26C112.021 13.38 111.915 13.56 111.915 13.8C111.915 13.9733 111.968 14.1333 112.075 14.28C112.195 14.4133 112.415 14.56 112.735 14.72C113.068 14.88 113.555 15.0933 114.195 15.36C114.821 15.6133 115.361 15.88 115.815 16.16C116.268 16.4267 116.615 16.7667 116.855 17.18C117.108 17.58 117.235 18.1067 117.235 18.76ZM124.156 19.82C124.489 19.82 124.809 19.7867 125.116 19.72C125.423 19.6533 125.729 19.5733 126.036 19.48V21.7C125.716 21.8333 125.316 21.9467 124.836 22.04C124.369 22.1467 123.856 22.2 123.296 22.2C122.643 22.2 122.056 22.0933 121.536 21.88C121.029 21.6667 120.623 21.3 120.316 20.78C120.023 20.2467 119.876 19.5133 119.876 18.58V13.32H118.456V12.06L120.096 11.06L120.956 8.76H122.856V11.08H125.916V13.32H122.856V18.58C122.856 18.9933 122.976 19.3067 123.216 19.52C123.456 19.72 123.769 19.82 124.156 19.82Z" fill="#3DB4F2"/>
<path d="M25.9132 24.2635L22.5776 20.9279C23.6817 19.616 24.4815 18.1645 24.5999 16.9536C24.6625 16.3125 24.1936 15.7419 23.5524 15.6792C22.9113 15.6165 22.3407 16.0855 22.278 16.7266C22.263 16.8801 22.225 17.045 22.1676 17.2182L18.9025 13.9533L25.9128 6.94199C26.0407 6.81399 26.1372 6.658 26.1944 6.48636L27.845 1.53827C28.1492 0.626357 27.2817 -0.241375 26.3697 0.0625224L21.4204 1.71192C21.2486 1.76917 21.0925 1.86568 20.9644 1.99373L13.9535 9.0047L6.9425 1.99417C6.8145 1.86617 6.65845 1.76972 6.48676 1.71247L1.53747 0.061921C0.625502 -0.242195 -0.24223 0.625537 0.0619408 1.5375L1.71249 6.48675C1.76974 6.65849 1.86619 6.81448 1.99419 6.94248L9.00466 13.9535L5.72505 17.2331C5.67327 17.0686 5.64129 16.913 5.63254 16.7696C5.59355 16.1266 5.0406 15.6369 4.39759 15.676C3.75459 15.715 3.26489 16.2679 3.30393 16.9109C3.35686 17.7829 3.79166 18.7922 4.45522 19.7873C4.46211 19.7983 4.46818 19.8096 4.47551 19.8203C4.50055 19.8574 4.52701 19.8943 4.55266 19.9312C4.55282 19.9314 4.55299 19.9316 4.5531 19.9318C4.59749 19.9958 4.64238 20.0597 4.68859 20.1234C4.72905 20.1795 4.77016 20.2355 4.81194 20.2914C4.82342 20.3068 4.8349 20.3221 4.84655 20.3374C4.99801 20.538 5.15772 20.7368 5.32449 20.9327L1.99381 24.2635C1.53829 23.808 0.799759 23.808 0.344241 24.2635C-0.111278 24.7191 -0.111278 25.4576 0.344241 25.9132L1.1609 26.7298C1.16358 26.7326 1.16588 26.7356 1.16861 26.7384C1.17135 26.7411 1.17435 26.7433 1.17714 26.7461L1.9937 27.5626C2.44921 28.0181 3.1878 28.0181 3.64332 27.5626C4.09878 27.1072 4.09883 26.3687 3.64348 25.9132L6.97914 22.5776C8.29112 23.6817 9.74254 24.4815 10.9535 24.5999C11.5946 24.6626 12.1652 24.1936 12.2279 23.5525C12.2906 22.9113 11.8216 22.3408 11.1804 22.278C11.0269 22.2631 10.8619 22.225 10.6885 22.1675L13.953 18.9022L17.2328 22.1822C17.0685 22.2339 16.9131 22.2658 16.7699 22.2745C16.1268 22.3135 15.6372 22.8664 15.6762 23.5094C15.7152 24.1524 16.2681 24.6421 16.9111 24.6031C17.7854 24.5501 18.7976 24.1131 19.7952 23.4467C19.803 23.4416 19.8111 23.4374 19.8189 23.4321C19.8479 23.4125 19.8767 23.3918 19.9057 23.3718C19.9349 23.3518 19.9641 23.3314 19.9932 23.311C20.0241 23.2892 20.055 23.268 20.0858 23.2459C20.1569 23.1951 20.2277 23.1429 20.2985 23.0899C20.3099 23.0814 20.3213 23.0728 20.3327 23.0642C20.5351 22.9116 20.7356 22.7506 20.9331 22.5824L24.2638 25.9132C23.8083 26.3687 23.8083 27.1073 24.2638 27.5628C24.7194 28.0183 25.4579 28.0183 25.9135 27.5628L26.7313 26.7449C26.7337 26.7426 26.7362 26.7407 26.7386 26.7384C26.7409 26.736 26.7429 26.7334 26.7452 26.7311L27.5628 25.9134C28.0183 25.4579 28.0183 24.7193 27.5628 24.2638C27.1072 23.8084 26.3688 23.8082 25.9132 24.2635ZM22.4193 3.83811L24.8937 3.01352L24.0685 5.48713L17.2529 12.3038L15.6032 10.6543L22.4193 3.83811ZM3.01332 3.01336L5.48759 3.8385L13.1187 11.469C13.122 11.4725 13.1249 11.4763 13.1283 11.4797L16.4282 14.7785C16.4286 14.7788 16.4289 14.7791 16.4292 14.7794L20.9197 19.2695C20.6682 19.5802 20.3949 19.8842 20.1068 20.1722C19.8371 20.4419 19.559 20.6943 19.2765 20.9267L14.7808 16.4308C14.7798 16.4297 14.7789 16.4285 14.7778 16.4274L11.479 13.1286C11.4787 13.1283 11.4784 13.1281 11.4781 13.1278L3.83846 5.48762L3.01332 3.01336ZM8.63707 20.9196C8.40638 20.7329 8.17871 20.5334 7.95797 20.3245C7.95682 20.3234 7.95568 20.3223 7.95453 20.3211C7.8923 20.2622 7.8309 20.2022 7.76988 20.1417C7.75129 20.1234 7.73281 20.1049 7.71438 20.0865C7.45057 19.8201 7.20621 19.5506 6.98067 19.2767L10.6542 15.6032L12.3034 17.2525L8.63707 20.9196Z" fill="#3DB4F2"/>
</svg>
